<?xml version="1.0" standalone="no"?>
<!DOCTYPE svg PUBLIC "-//W3C//DTD SVG 20010904//EN"
 "http://www.w3.org/TR/2001/REC-SVG-20010904/DTD/svg10.dtd">
<svg version="1.0" xmlns="http://www.w3.org/2000/svg"
 width="96.000000pt" height="96.000000pt" viewBox="0 0 96.000000 96.000000"
 preserveAspectRatio="xMidYMid meet">
<metadata>
Created by potrace 1.14, written by Peter Selinger 2001-2017
</metadata>
<g transform="translate(0.000000,96.000000) scale(0.100000,-0.100000)"
fill="#000000" stroke="none">
<path d="M404 816 c-28 -13 -61 -37 -73 -54 -21 -30 -25 -46 -37 -127 -16
-116 -16 -123 3 -142 33 -33 63 -93 63 -127 0 -30 -3 -34 -33 -40 -96 -18
-211 -144 -178 -195 12 -19 48 -5 55 22 12 42 72 95 130 114 27 8 33 6 59 -24
49 -56 125 -57 180 -1 29 28 33 29 68 19 46 -14 105 -67 114 -103 4 -15 13
-29 21 -32 20 -8 44 4 44 20 0 28 -28 81 -56 109 -32 30 -119 75 -146 75 -14
0 -18 9 -18 40 0 42 18 79 57 117 25 24 30 65 14 117 -5 17 -15 50 -21 74 -14
56 -62 109 -111 123 -22 7 -44 18 -50 26 -15 18 -26 17 -85 -11z m197 -186 c6
0 5 -19 -6 -85 -4 -30 -32 -94 -47 -109 -69 -69 -163 -20 -182 95 -18 105 -20
101 54 122 30 9 64 23 75 30 17 14 23 12 59 -19 22 -19 43 -34 47 -34z m-61
-312 c0 -35 -24 -58 -60 -58 -32 0 -60 31 -60 65 0 18 6 20 60 20 58 0 60 0
60 -27z"/>
<path d="M404 589 c-10 -17 13 -36 27 -22 12 12 4 33 -11 33 -5 0 -12 -5 -16
-11z"/>
<path d="M524 589 c-10 -17 13 -36 27 -22 12 12 4 33 -11 33 -5 0 -12 -5 -16
-11z"/>
<path d="M103 601 c-51 -37 -67 -76 -60 -147 10 -94 59 -144 125 -128 62 15
104 106 87 185 -7 30 -84 119 -103 119 -5 0 -27 -13 -49 -29z m83 -86 c20 -31
13 -90 -14 -117 -22 -23 -45 -16 -61 18 -37 81 29 169 75 99z"/>
<path d="M763 601 c-51 -37 -67 -76 -60 -147 10 -94 59 -144 125 -128 62 15
103 99 88 179 -7 35 -81 125 -103 125 -5 0 -28 -13 -50 -29z m82 -81 c35 -38
-4 -151 -47 -135 -36 14 -49 94 -22 133 19 27 45 28 69 2z"/>
</g>
</svg>
